<svg width="160" height="110" viewBox="0 0 160 110" fill="none" xmlns="http://www.w3.org/2000/svg">
  <rect x="1" y="1" width="158" height="108" rx="24" fill="white" stroke="#E5E7EB"/>
  <g opacity="0.9">
    <path d="M66.5 38.5a11.5 11.5 0 0 0 16.2 15.9l14.9 14.9a3.6 3.6 0 0 1 0 5.1l-3.2 3.2a3.6 3.6 0 0 1-5.1 0L74.4 66.7A11.5 11.5 0 0 0 66.5 38.5Z" fill="#111827" fill-opacity="0.12"/>
    <path d="M95.9 36.2c.3.3.3.9 0 1.2l-4.3 4.3 2.6 2.6 4.3-4.3c.3-.3.9-.3 1.2 0l2.8 2.8c.3.3.3.9 0 1.2l-4.1 4.1a11.5 11.5 0 0 1-15.9 16.2L69.4 80.4a3.6 3.6 0 0 1-5.1 0l-3.2-3.2a3.6 3.6 0 0 1 0-5.1l14.9-14.9a11.5 11.5 0 0 1 16.2-15.9l3.7-3.7c.3-.3.9-.3 1.2 0l2.8 2.8Z" fill="#111827" fill-opacity="0.22"/>
    <path d="M60.6 83.1a2.4 2.4 0 0 1 0-3.4l23.8-23.8a2.4 2.4 0 0 1 3.4 0l1.6 1.6a2.4 2.4 0 0 1 0 3.4L65.6 84.7a2.4 2.4 0 0 1-3.4 0l-1.6-1.6Z" fill="#111827" fill-opacity="0.10"/>
  </g>
</svg>
